<svg width="311" height="116" viewBox="0 0 311 116"  xmlns="http://www.w3.org/2000/svg" id="logo">
<path d="M71.625 26.7188V90H58.5938V51.75L42.4688 69.375H38.7188L22.4062 51.75V90H9.375V26.7188H13.7812L40.5938 54.6562L67.2188 26.7188H71.625ZM143.719 27V65.1562C143.719 70.5938 142.5 75.2812 140.062 79.2188C137.688 83.0938 134.438 86.0938 130.312 88.2188C126.25 90.2812 121.688 91.3125 116.625 91.3125C111.562 91.3125 106.969 90.2812 102.844 88.2188C98.7188 86.0938 95.4375 83.0938 93 79.2188C90.625 75.2812 89.4375 70.5938 89.4375 65.1562V27H102.469V64.4062C102.469 69.2188 103.75 72.8438 106.312 75.2812C108.938 77.6562 112.375 78.8125 116.625 78.75C120.812 78.75 124.219 77.5625 126.844 75.1875C129.469 72.8125 130.781 69.2188 130.781 64.4062V27H143.719ZM300.844 27.1875V90.4688H296.156L258.938 52.125V90H245.906V26.7188H250.594L287.812 65.625V27.1875H300.844Z" />
<path fill-rule="evenodd" clip-rule="evenodd" d="M188.635 29.2162C200.07 27.405 210.81 35.2077 212.621 46.6455C213.938 54.9595 210.175 62.9046 203.629 67.3199C206.86 63.8427 208.518 58.9695 207.718 53.918C206.335 45.1903 198.139 39.2356 189.412 40.618C180.684 42.0003 174.729 50.1962 176.112 58.924C176.628 62.1814 178.093 65.0526 180.18 67.3002C175.536 64.1614 172.154 59.179 171.208 53.2049C169.396 41.767 177.199 31.0274 188.635 29.2162ZM216.869 33.323C219.189 36.8061 220.813 40.8333 221.511 45.2376C224.1 61.5843 212.948 76.9345 196.602 79.5234C180.257 82.1122 164.907 70.9594 162.318 54.6128C161.092 46.8698 162.949 39.3503 166.98 33.3048C160.142 40.6909 156.636 51.0268 158.333 61.7398C161.271 80.2863 178.687 92.9399 197.233 90.0024C215.78 87.0649 228.434 69.6487 225.496 51.1022C224.401 44.1899 221.295 38.0962 216.869 33.323Z" />
</svg>
